<?xml version="1.0" encoding="UTF-8"?>
<svg xmlns="http://www.w3.org/2000/svg" xmlns:xlink="http://www.w3.org/1999/xlink" width="30px" height="30px" viewBox="0 0 30 30" version="1.1">
<g id="surface1">
<path style="fill:none;stroke-width:22;stroke-linecap:square;stroke-linejoin:round;stroke:rgb(0%,0%,0%);stroke-opacity:1;stroke-miterlimit:4;" d="M 249.987898 0.00692147 C 249.987898 138.052339 138.042649 249.997588 -0.00276859 249.997588 C -138.048186 249.997588 -249.993435 138.052339 -249.993435 0.00692147 C -249.993435 -138.038496 -138.048186 -249.983745 -0.00276859 -249.983745 C 138.042649 -249.983745 249.987898 -138.038496 249.987898 0.00692147 Z M 249.987898 0.00692147 " transform="matrix(0.0574709,0,0,0.0574709,15.000159,14.999602)"/>
<path style="fill:none;stroke-width:9.391;stroke-linecap:butt;stroke-linejoin:miter;stroke:rgb(0%,0%,0%);stroke-opacity:1;stroke-miterlimit:4;" d="M 93.697242 352.365 L 454.878758 352.365 " transform="matrix(0.0795566,0,0,0.0795566,-6.821422,-13.032963)"/>
<path style="fill:none;stroke-width:21.672;stroke-linecap:butt;stroke-linejoin:miter;stroke:rgb(0%,0%,0%);stroke-opacity:1;stroke-miterlimit:4;" d="M 96.594158 352.365 L 128.853029 352.365 " transform="matrix(0.0795566,0,0,0.0795566,-6.821422,-13.032963)"/>
<path style="fill:none;stroke-width:21.672;stroke-linecap:butt;stroke-linejoin:miter;stroke:rgb(0%,0%,0%);stroke-opacity:1;stroke-miterlimit:4;" d="M 419.722971 352.365 L 451.981842 352.365 " transform="matrix(0.0795566,0,0,0.0795566,-6.821422,-13.032963)"/>
<path style="fill:none;stroke-width:9.391;stroke-linecap:butt;stroke-linejoin:miter;stroke:rgb(0%,0%,0%);stroke-opacity:1;stroke-miterlimit:4;" d="M 151.340948 363.216158 L 151.340948 341.513842 " transform="matrix(0.0795566,0,0,0.0795566,-6.821422,-13.032963)"/>
<path style="fill:none;stroke-width:9.391;stroke-linecap:butt;stroke-linejoin:miter;stroke:rgb(0%,0%,0%);stroke-opacity:1;stroke-miterlimit:4;" d="M 192.339665 363.216158 L 192.339665 341.513842 " transform="matrix(0.0795566,0,0,0.0795566,-6.821422,-13.032963)"/>
<path style="fill:none;stroke-width:9.391;stroke-linecap:butt;stroke-linejoin:miter;stroke:rgb(0%,0%,0%);stroke-opacity:1;stroke-miterlimit:4;" d="M 233.289283 363.216158 L 233.289283 341.513842 " transform="matrix(0.0795566,0,0,0.0795566,-6.821422,-13.032963)"/>
<path style="fill:none;stroke-width:9.391;stroke-linecap:butt;stroke-linejoin:miter;stroke:rgb(0%,0%,0%);stroke-opacity:1;stroke-miterlimit:4;" d="M 315.286717 363.216158 L 315.286717 341.513842 " transform="matrix(0.0795566,0,0,0.0795566,-6.821422,-13.032963)"/>
<path style="fill:none;stroke-width:9.391;stroke-linecap:butt;stroke-linejoin:miter;stroke:rgb(0%,0%,0%);stroke-opacity:1;stroke-miterlimit:4;" d="M 356.236335 363.216158 L 356.236335 341.513842 " transform="matrix(0.0795566,0,0,0.0795566,-6.821422,-13.032963)"/>
<path style="fill:none;stroke-width:9.391;stroke-linecap:butt;stroke-linejoin:miter;stroke:rgb(0%,0%,0%);stroke-opacity:1;stroke-miterlimit:4;" d="M 397.235052 363.216158 L 397.235052 341.513842 " transform="matrix(0.0795566,0,0,0.0795566,-6.821422,-13.032963)"/>
<path style="fill:none;stroke-width:9.391;stroke-linecap:butt;stroke-linejoin:miter;stroke:rgb(0%,0%,0%);stroke-opacity:1;stroke-miterlimit:4;" d="M 274.288 363.216158 L 274.288 341.513842 " transform="matrix(0.0795566,0,0,0.0795566,-6.821422,-13.032963)"/>
<path style="fill:none;stroke-width:9.391;stroke-linecap:butt;stroke-linejoin:miter;stroke:rgb(0%,0%,0%);stroke-opacity:1;stroke-miterlimit:4;" d="M 274.288 171.774242 L 274.288 532.955758 " transform="matrix(0.0795566,0,0,0.0795566,-6.821422,-13.032963)"/>
<path style="fill:none;stroke-width:21.672;stroke-linecap:butt;stroke-linejoin:miter;stroke:rgb(0%,0%,0%);stroke-opacity:1;stroke-miterlimit:4;" d="M 274.288 174.671158 L 274.288 206.930029 " transform="matrix(0.0795566,0,0,0.0795566,-6.821422,-13.032963)"/>
<path style="fill:none;stroke-width:21.672;stroke-linecap:butt;stroke-linejoin:miter;stroke:rgb(0%,0%,0%);stroke-opacity:1;stroke-miterlimit:4;" d="M 274.288 497.799971 L 274.288 530.058842 " transform="matrix(0.0795566,0,0,0.0795566,-6.821422,-13.032963)"/>
<path style="fill:none;stroke-width:9.391;stroke-linecap:butt;stroke-linejoin:miter;stroke:rgb(0%,0%,0%);stroke-opacity:1;stroke-miterlimit:4;" d="M 263.436842 229.417948 L 285.139158 229.417948 " transform="matrix(0.0795566,0,0,0.0795566,-6.821422,-13.032963)"/>
<path style="fill:none;stroke-width:9.391;stroke-linecap:butt;stroke-linejoin:miter;stroke:rgb(0%,0%,0%);stroke-opacity:1;stroke-miterlimit:4;" d="M 263.436842 270.416665 L 285.139158 270.416665 " transform="matrix(0.0795566,0,0,0.0795566,-6.821422,-13.032963)"/>
<path style="fill:none;stroke-width:9.391;stroke-linecap:butt;stroke-linejoin:miter;stroke:rgb(0%,0%,0%);stroke-opacity:1;stroke-miterlimit:4;" d="M 263.436842 311.366283 L 285.139158 311.366283 " transform="matrix(0.0795566,0,0,0.0795566,-6.821422,-13.032963)"/>
<path style="fill:none;stroke-width:9.391;stroke-linecap:butt;stroke-linejoin:miter;stroke:rgb(0%,0%,0%);stroke-opacity:1;stroke-miterlimit:4;" d="M 263.436842 393.363717 L 285.139158 393.363717 " transform="matrix(0.0795566,0,0,0.0795566,-6.821422,-13.032963)"/>
<path style="fill:none;stroke-width:9.391;stroke-linecap:butt;stroke-linejoin:miter;stroke:rgb(0%,0%,0%);stroke-opacity:1;stroke-miterlimit:4;" d="M 263.436842 434.313335 L 285.139158 434.313335 " transform="matrix(0.0795566,0,0,0.0795566,-6.821422,-13.032963)"/>
<path style="fill:none;stroke-width:9.391;stroke-linecap:butt;stroke-linejoin:miter;stroke:rgb(0%,0%,0%);stroke-opacity:1;stroke-miterlimit:4;" d="M 263.436842 475.312052 L 285.139158 475.312052 " transform="matrix(0.0795566,0,0,0.0795566,-6.821422,-13.032963)"/>
<path style="fill:none;stroke-width:9.391;stroke-linecap:butt;stroke-linejoin:miter;stroke:rgb(0%,0%,0%);stroke-opacity:1;stroke-miterlimit:4;" d="M 263.436842 352.365 L 285.139158 352.365 " transform="matrix(0.0795566,0,0,0.0795566,-6.821422,-13.032963)"/>
</g>
</svg>
