<?xml version="1.0" encoding="UTF-8" standalone="no"?>
<svg
   xmlns:dc="http://purl.org/dc/elements/1.1/"
   xmlns:cc="http://creativecommons.org/ns#"
   xmlns:rdf="http://www.w3.org/1999/02/22-rdf-syntax-ns#"
   xmlns:svg="http://www.w3.org/2000/svg"
   xmlns="http://www.w3.org/2000/svg"
   xmlns:sodipodi="http://sodipodi.sourceforge.net/DTD/sodipodi-0.dtd"
   xmlns:inkscape="http://www.inkscape.org/namespaces/inkscape"
   version="1.1"
   id="svg2"
   xml:space="preserve"
   width="1621.8"
   height="680.76935"
   viewBox="0 0 1621.8 680.76935"
   sodipodi:docname="nyan.ai"><metadata
     id="metadata8"><rdf:RDF><cc:Work
         rdf:about=""><dc:format>image/svg+xml</dc:format><dc:type
           rdf:resource="http://purl.org/dc/dcmitype/StillImage" /></cc:Work></rdf:RDF></metadata><defs
     id="defs6" /><sodipodi:namedview
     pagecolor="#ffffff"
     bordercolor="#666666"
     borderopacity="1"
     objecttolerance="10"
     gridtolerance="10"
     guidetolerance="10"
     inkscape:pageopacity="0"
     inkscape:pageshadow="2"
     inkscape:window-width="640"
     inkscape:window-height="480"
     id="namedview4" /><g
     id="g10"
     inkscape:groupmode="layer"
     inkscape:label="nyan"
     transform="matrix(1.3333333,0,0,-1.3333333,0,680.76933)"><text
       transform="matrix(1,0,0,-1,489.6055,398.0781)"
       style="font-variant:normal;font-weight:normal;font-stretch:normal;font-size:48px;font-family:'Century Gothic';-inkscape-font-specification:CenturyGothic;writing-mode:lr-tb;fill:#000000;fill-opacity:1;fill-rule:nonzero;stroke:none"
       id="text14"><tspan
         x="0 25.728001 70.751999 96.480003 142.56 175.34399 189.79201 204.24001 213.84 245.28"
         y="0"
         sodipodi:role="line"
         id="tspan12">EmyWarrior</tspan></text><path
       d="m 873.159,134.689 h -76.047 v 29.873 h 76.047 z"
       style="fill:#6633ff;fill-opacity:1;fill-rule:nonzero;stroke:none"
       id="path16" /><path
       d="m 873.159,164.562 h -76.047 v 29.935 h 76.047 z"
       style="fill:#0099ff;fill-opacity:1;fill-rule:nonzero;stroke:none"
       id="path18" /><path
       d="M 873.178,194.602 H 797.26 v 29.873 h 75.918 z"
       style="fill:#33ff00;fill-opacity:1;fill-rule:nonzero;stroke:none"
       id="path20" /><path
       d="m 797.112,254.391 h 76.16 v -29.916 h -76.16 z"
       style="fill:#ffff00;fill-opacity:1;fill-rule:nonzero;stroke:none"
       id="path22" /><path
       d="m 873.152,284.391 h -76.039 v -30 h 76.039 z"
       style="fill:#ff9900;fill-opacity:1;fill-rule:nonzero;stroke:none"
       id="path24" /><path
       d="m 873.159,284.391 h -76.047 v 29.932 h 76.047 z"
       style="fill:#ff0000;fill-opacity:1;fill-rule:nonzero;stroke:none"
       id="path26" /><path
       d="M 797.112,122.448 H 713.16 v 29.917 h 83.952 z"
       style="fill:#6633ff;fill-opacity:1;fill-rule:nonzero;stroke:none"
       id="path28" /><path
       d="m 797.112,152.364 h -83.958 v 30.083 h 83.958 z"
       style="fill:#0099ff;fill-opacity:1;fill-rule:nonzero;stroke:none"
       id="path30" /><path
       d="m 797.112,182.448 h -83.958 v 29.917 h 83.958 z"
       style="fill:#33ff00;fill-opacity:1;fill-rule:nonzero;stroke:none"
       id="path32" /><path
       d="m 713.154,242.407 h 83.958 v -30.042 h -83.958 z"
       style="fill:#ffff00;fill-opacity:1;fill-rule:nonzero;stroke:none"
       id="path34" /><path
       d="m 797.112,272.344 h -83.958 v -29.937 h 83.958 z"
       style="fill:#ff9900;fill-opacity:1;fill-rule:nonzero;stroke:none"
       id="path36" /><path
       d="m 797.112,272.344 h -83.958 v 30.048 h 83.958 z"
       style="fill:#ff0000;fill-opacity:1;fill-rule:nonzero;stroke:none"
       id="path38" /><path
       d="m 713.16,110.479 h -84.006 v 29.917 h 84.006 z"
       style="fill:#6633ff;fill-opacity:1;fill-rule:nonzero;stroke:none"
       id="path40" /><path
       d="m 713.154,140.395 h -84 v 30.083 h 84 z"
       style="fill:#0099ff;fill-opacity:1;fill-rule:nonzero;stroke:none"
       id="path42" /><path
       d="m 713.154,170.479 h -84 v 29.917 h 84 z"
       style="fill:#33ff00;fill-opacity:1;fill-rule:nonzero;stroke:none"
       id="path44" /><path
       d="m 629.154,230.438 h 84 v -30.042 h -84 z"
       style="fill:#ffff00;fill-opacity:1;fill-rule:nonzero;stroke:none"
       id="path46" /><path
       d="m 713.152,260.499 h -83.998 v -30.061 h 83.998 z"
       style="fill:#ff9900;fill-opacity:1;fill-rule:nonzero;stroke:none"
       id="path48" /><path
       d="m 713.16,260.499 h -84.006 v 29.894 h 84.006 z"
       style="fill:#ff0000;fill-opacity:1;fill-rule:nonzero;stroke:none"
       id="path50" /><path
       d="m 629.154,98.492 h -84 v 29.917 h 84 z"
       style="fill:#6633ff;fill-opacity:1;fill-rule:nonzero;stroke:none"
       id="path52" /><path
       d="m 629.154,128.409 h -84 v 29.979 h 84 z"
       style="fill:#0099ff;fill-opacity:1;fill-rule:nonzero;stroke:none"
       id="path54" /><path
       d="m 629.154,158.387 h -84 v 30.021 h 84 z"
       style="fill:#33ff00;fill-opacity:1;fill-rule:nonzero;stroke:none"
       id="path56" /><path
       d="m 545.154,218.534 h 84 v -30.125 h -84 z"
       style="fill:#ffff00;fill-opacity:1;fill-rule:nonzero;stroke:none"
       id="path58" /><path
       d="m 629.154,248.512 h -84 v -30.061 h 84 z"
       style="fill:#ff9900;fill-opacity:1;fill-rule:nonzero;stroke:none"
       id="path60" /><path
       d="m 629.154,248.512 h -84 v 29.875 h 84 z"
       style="fill:#ff0000;fill-opacity:1;fill-rule:nonzero;stroke:none"
       id="path62" /><path
       d="m 545.154,110.468 h -84 v 30.083 h 84 z"
       style="fill:#6633ff;fill-opacity:1;fill-rule:nonzero;stroke:none"
       id="path64" /><path
       d="m 545.154,140.551 h -84 v 29.917 h 84 z"
       style="fill:#0099ff;fill-opacity:1;fill-rule:nonzero;stroke:none"
       id="path66" /><path
       d="m 545.154,170.468 h -83.995 v 29.917 h 83.995 z"
       style="fill:#33ff00;fill-opacity:1;fill-rule:nonzero;stroke:none"
       id="path68" /><path
       d="m 461.159,230.551 h 83.995 v -30.167 h -83.995 z"
       style="fill:#ffff00;fill-opacity:1;fill-rule:nonzero;stroke:none"
       id="path70" /><path
       d="m 545.154,260.468 h -83.995 v -29.917 h 83.995 z"
       style="fill:#ff9900;fill-opacity:1;fill-rule:nonzero;stroke:none"
       id="path72" /><path
       d="m 545.154,260.468 h -83.995 v 29.917 h 83.995 z"
       style="fill:#ff0000;fill-opacity:1;fill-rule:nonzero;stroke:none"
       id="path74" /><path
       d="m 461.154,122.385 h -84.25 v 30.247 h 84.25 z"
       style="fill:#6633ff;fill-opacity:1;fill-rule:nonzero;stroke:none"
       id="path76" /><path
       d="m 461.154,152.631 h -84.25 v 30.038 h 84.25 z"
       style="fill:#0099ff;fill-opacity:1;fill-rule:nonzero;stroke:none"
       id="path78" /><path
       d="m 461.154,182.67 h -84.25 v 29.715 h 84.25 z"
       style="fill:#33ff00;fill-opacity:1;fill-rule:nonzero;stroke:none"
       id="path80" /><path
       d="m 376.904,242.538 h 84.255 v -30.154 h -84.255 z"
       style="fill:#ffff00;fill-opacity:1;fill-rule:nonzero;stroke:none"
       id="path82" /><path
       d="m 461.159,272.468 h -84.255 v -29.93 h 84.255 z"
       style="fill:#ff9900;fill-opacity:1;fill-rule:nonzero;stroke:none"
       id="path84" /><path
       d="m 461.154,272.468 h -84.25 v 29.917 h 84.25 z"
       style="fill:#ff0000;fill-opacity:1;fill-rule:nonzero;stroke:none"
       id="path86" /><path
       d="m 376.904,134.801 h -83.75 v 29.958 h 83.75 z"
       style="fill:#6633ff;fill-opacity:1;fill-rule:nonzero;stroke:none"
       id="path88" /><path
       d="m 376.904,164.76 h -83.75 v 29.792 h 83.75 z"
       style="fill:#0099ff;fill-opacity:1;fill-rule:nonzero;stroke:none"
       id="path90" /><path
       d="m 376.904,194.551 h -83.75 v 29.833 h 83.75 z"
       style="fill:#33ff00;fill-opacity:1;fill-rule:nonzero;stroke:none"
       id="path92" /><path
       d="m 293.154,254.468 h 83.75 v -30.083 h -83.75 z"
       style="fill:#ffff00;fill-opacity:1;fill-rule:nonzero;stroke:none"
       id="path94" /><path
       d="m 376.904,284.613 h -83.75 v -30.145 h 83.75 z"
       style="fill:#ff9900;fill-opacity:1;fill-rule:nonzero;stroke:none"
       id="path96" /><path
       d="m 376.904,284.613 h -83.75 v 29.771 h 83.75 z"
       style="fill:#ff0000;fill-opacity:1;fill-rule:nonzero;stroke:none"
       id="path98" /><path
       d="m 293.154,122.437 h -84 v 29.912 h 84 z"
       style="fill:#6633ff;fill-opacity:1;fill-rule:nonzero;stroke:none"
       id="path100" /><path
       d="m 293.154,152.348 h -84 v 30.078 h 84 z"
       style="fill:#0099ff;fill-opacity:1;fill-rule:nonzero;stroke:none"
       id="path102" /><path
       d="m 293.154,182.427 h -84 v 29.958 h 84 z"
       style="fill:#33ff00;fill-opacity:1;fill-rule:nonzero;stroke:none"
       id="path104" /><path
       d="m 209.154,242.385 h 84 v -30 h -84 z"
       style="fill:#ffff00;fill-opacity:1;fill-rule:nonzero;stroke:none"
       id="path106" /><path
       d="m 293.154,272.431 h -84 v -30.047 h 84 z"
       style="fill:#ff9900;fill-opacity:1;fill-rule:nonzero;stroke:none"
       id="path108" /><path
       d="m 293.154,272.431 h -84 v 29.961 h 84 z"
       style="fill:#ff0000;fill-opacity:1;fill-rule:nonzero;stroke:none"
       id="path110" /><path
       d="m 209.154,110.478 h -84.25 v 29.917 h 84.25 z"
       style="fill:#6633ff;fill-opacity:1;fill-rule:nonzero;stroke:none"
       id="path112" /><path
       d="m 209.154,140.395 h -84.25 v 30.083 h 84.25 z"
       style="fill:#0099ff;fill-opacity:1;fill-rule:nonzero;stroke:none"
       id="path114" /><path
       d="m 209.154,170.478 h -84.25 v 29.917 h 84.25 z"
       style="fill:#33ff00;fill-opacity:1;fill-rule:nonzero;stroke:none"
       id="path116" /><path
       d="m 124.904,230.353 h 84.25 v -29.958 h -84.25 z"
       style="fill:#ffff00;fill-opacity:1;fill-rule:nonzero;stroke:none"
       id="path118" /><path
       d="m 209.154,260.499 h -84.25 v -30.145 h 84.25 z"
       style="fill:#ff9900;fill-opacity:1;fill-rule:nonzero;stroke:none"
       id="path120" /><path
       d="m 209.154,260.499 h -84.25 v 29.894 h 84.25 z"
       style="fill:#ff0000;fill-opacity:1;fill-rule:nonzero;stroke:none"
       id="path122" /><path
       d="M 125.028,98.398 H 41.327 v 29.917 h 83.701 z"
       style="fill:#6633ff;fill-opacity:1;fill-rule:nonzero;stroke:none"
       id="path124" /><path
       d="M 124.904,128.315 H 41.328 v 30.083 h 83.576 z"
       style="fill:#0099ff;fill-opacity:1;fill-rule:nonzero;stroke:none"
       id="path126" /><path
       d="M 124.904,158.398 H 41.328 v 29.917 h 83.576 z"
       style="fill:#33ff00;fill-opacity:1;fill-rule:nonzero;stroke:none"
       id="path128" /><path
       d="m 41.328,218.44 h 83.576 V 188.315 H 41.328 Z"
       style="fill:#ffff00;fill-opacity:1;fill-rule:nonzero;stroke:none"
       id="path130" /><path
       d="M 125.02,248.295 H 41.327 v -29.937 h 83.693 z"
       style="fill:#ff9900;fill-opacity:1;fill-rule:nonzero;stroke:none"
       id="path132" /><path
       d="M 124.904,248.295 H 41.328 v 30.098 h 83.576 z"
       style="fill:#ff0000;fill-opacity:1;fill-rule:nonzero;stroke:none"
       id="path134" /><g
       id="g136"
       transform="translate(1105.1676,117.3933)"><path
         d="m 0,0 -115.68,-5.175 -99.896,4.354 -12.412,12.812 -6.442,81.945 8.198,86.087 11.988,12.021 106.23,5.946 97.609,-5.947 11.99,-11.99 4.443,-96.068 z"
         style="fill:#ffcc9a;fill-opacity:1;fill-rule:nonzero;stroke:none"
         id="path138" /></g><g
       id="g140"
       transform="translate(914.9039,129.7596)"><path
         d="m 0,0 v 11.807 l -11.99,-0.182 -0.135,12.25 -12,-0.125 0.144,119.955 12.106,-0.08 -0.115,12.071 L 0,155.75 v 11.872 l 155.878,0.064 v -11.99 h 11.99 v -11.991 h 11.991 V -0.181 Z"
         style="fill:#ff99ff;fill-opacity:1;fill-rule:nonzero;stroke:none"
         id="path142" /></g><path
       d="m 938.763,201.551 h -11.998 v 12.002 h 11.998 z"
       style="fill:#fe339a;fill-opacity:1;fill-rule:nonzero;stroke:none"
       id="path144" /><g
       id="g146"
       transform="translate(986.848,189.5311)"><path
         d="m 0,0 h -11.991 l 0.003,11.995 H 0 Z"
         style="fill:#fe3399;fill-opacity:1;fill-rule:nonzero;stroke:none"
         id="path148" /></g><g
       id="g150"
       transform="translate(974.8618,225.498)"><path
         d="m 0,0 -11.995,0.005 v 11.99 L 0,12 Z"
         style="fill:#ff3399;fill-opacity:1;fill-rule:nonzero;stroke:none"
         id="path152" /></g><path
       d="m 986.848,273.465 h -11.991 v 11.991 h 11.991 z"
       style="fill:#ff3399;fill-opacity:1;fill-rule:nonzero;stroke:none"
       id="path154" /><path
       d="m 926.895,261.474 h -11.991 v 11.991 h 11.991 z"
       style="fill:#ff3399;fill-opacity:1;fill-rule:nonzero;stroke:none"
       id="path156" /><g
       id="g158"
       transform="translate(962.8665,153.5594)"><path
         d="M 0,0 -11.964,0.027 V 11.964 H -0.026 Z"
         style="fill:#fe339a;fill-opacity:1;fill-rule:nonzero;stroke:none"
         id="path160" /></g><path
       d="m 914.904,177.541 h -11.991 v 11.991 h 11.991 z"
       style="fill:#ff339a;fill-opacity:1;fill-rule:nonzero;stroke:none"
       id="path162" /><g
       id="g164"
       transform="translate(1070.8101,249.4784)"><path
         d="M 0,0 -12.031,0.005 V 11.969 H -0.029 Z"
         style="fill:#ff3399;fill-opacity:1;fill-rule:nonzero;stroke:none"
         id="path166" /></g><path
       d="m 1022.819,273.465 h -11.991 v 11.991 h 11.991 z"
       style="fill:#ff3399;fill-opacity:1;fill-rule:nonzero;stroke:none"
       id="path168" /><path
       d="m 926.895,141.569 h -11.991 v 11.991 h 11.991 z"
       style="fill:#ff3399;fill-opacity:1;fill-rule:nonzero;stroke:none"
       id="path170" /><g
       id="g172"
       transform="translate(998.8381,141.567)"><path
         d="m 0,0 0.024,59.943 11.967,47.974 h 23.981 l 11.99,-11.991 11.991,-11.99 22.279,-6.118 25.709,6.083 10.372,11.901 13.583,12.115 h 23.981 L 167.868,59.955 V 0.002 l -11.991,-11.991 -11.99,-11.99 -58.905,-5.162 -61.003,5.042 -11.993,12.11 z"
         style="fill:#999999;fill-opacity:1;fill-rule:nonzero;stroke:none"
         id="path174" /></g><g
       id="g176"
       transform="translate(795.0136,213.5956)"><path
         d="m 0,0 -4.193,-13.794 10.25,-2.584 5.934,-7.676 45.816,-13.907 18.25,-1.5 0.598,19.25 -18.015,9.583 -24.083,14.5 z"
         style="fill:#999999;fill-opacity:1;fill-rule:nonzero;stroke:none"
         id="path178" /></g><g
       id="g180"
       transform="translate(879.8205,118.5096)"><path
         d="m 0,0 -36.86,-0.922 -3.557,-26.286 27.539,2.305 11.99,11.991 z"
         style="fill:#999999;fill-opacity:1;fill-rule:nonzero;stroke:none"
         id="path182" /></g><g
       id="g184"
       transform="translate(902.9039,93.593)"><path
         d="M 0,0 -0.708,13.042 24.792,12.5 V -0.583 Z"
         style="fill:#999999;fill-opacity:1;fill-rule:nonzero;stroke:none"
         id="path186" /></g><g
       id="g188"
       transform="translate(1021.9663,106.2596)"><path
         d="m 0,0 25.594,0.187 -0.25,-13.312 -24.469,0.469 z"
         style="fill:#999999;fill-opacity:1;fill-rule:nonzero;stroke:none"
         id="path190" /></g><g
       id="g192"
       transform="translate(1079.0706,106.968)"><path
         d="M 0,0 29.24,-0.146 28.833,-15.24 3.708,-13.333 Z"
         style="fill:#999999;fill-opacity:1;fill-rule:nonzero;stroke:none"
         id="path194" /></g><path
       d="m 1046.8,177.541 h -11.99 v 11.991 h 11.99 z"
       style="fill:#ffffff;fill-opacity:1;fill-rule:nonzero;stroke:none"
       id="path196" /><g
       id="g198"
       transform="translate(1130.7369,177.5402)"><path
         d="m 0,0 h -11.993 v 11.991 h 11.99 z"
         style="fill:#ffffff;fill-opacity:1;fill-rule:nonzero;stroke:none"
         id="path200" /></g><g
       id="g202"
       transform="translate(998.8381,141.5689)"><path
         d="M 0,0 -11.99,-0.002 V 59.957 L 0,59.953 Z"
         style="fill:#000000;fill-opacity:1;fill-rule:nonzero;stroke:none"
         id="path204" /></g><path
       d="m 1034.81,249.484 h -23.981 v 11.991 h 23.981 z"
       style="fill:#000000;fill-opacity:1;fill-rule:nonzero;stroke:none"
       id="path206" /><path
       d="m 1010.829,201.522 h -11.991 v 47.962 h 11.991 z"
       style="fill:#000000;fill-opacity:1;fill-rule:nonzero;stroke:none"
       id="path208" /><g
       id="g210"
       transform="translate(1034.8098,249.4838)"><path
         d="M 0,0 H 11.99 L 11.985,-11.993 0,-11.991 Z"
         style="fill:#000000;fill-opacity:1;fill-rule:nonzero;stroke:none"
         id="path212" /></g><g
       id="g214"
       transform="translate(1046.795,237.4905)"><path
         d="M 0,0 11.996,0.003 V -11.988 H 0.005 Z"
         style="fill:#000000;fill-opacity:1;fill-rule:nonzero;stroke:none"
         id="path216" /></g><path
       d="m 1058.791,225.503 h 47.962 v -11.991 h -47.962 z"
       style="fill:#000000;fill-opacity:1;fill-rule:nonzero;stroke:none"
       id="path218" /><g
       id="g220"
       transform="translate(1130.7168,261.4744)"><path
         d="M 0,0 H 23.999 V -11.995 L 0.017,-11.991 Z"
         style="fill:#000000;fill-opacity:1;fill-rule:nonzero;stroke:none"
         id="path222" /></g><g
       id="g224"
       transform="translate(1154.7153,249.4791)"><path
         d="M 0,0 11.99,0.005 V -47.957 H 0 Z"
         style="fill:#000000;fill-opacity:1;fill-rule:nonzero;stroke:none"
         id="path226" /></g><path
       d="m 1166.706,201.522 h 11.991 v -59.953 h -11.991 z"
       style="fill:#000000;fill-opacity:1;fill-rule:nonzero;stroke:none"
       id="path228" /><path
       d="m 1154.715,141.569 h 11.99 v -11.991 h -11.99 z"
       style="fill:#000000;fill-opacity:1;fill-rule:nonzero;stroke:none"
       id="path230" /><path
       d="m 1142.725,129.578 h 11.991 v -11.991 h -11.991 z"
       style="fill:#000000;fill-opacity:1;fill-rule:nonzero;stroke:none"
       id="path232" /><g
       id="g234"
       transform="translate(1010.8245,141.5728)"><path
         d="M 0,0 -11.986,-0.004 V -11.995 H 0.004 Z"
         style="fill:#000000;fill-opacity:1;fill-rule:nonzero;stroke:none"
         id="path236" /></g><g
       id="g238"
       transform="translate(807.0042,189.5421)"><path
         d="M 0,0 -23.996,-0.001 V 23.97 h 11.991 V 11.977 l 11.99,0.003 z"
         style="fill:#000000;fill-opacity:1;fill-rule:nonzero;stroke:none"
         id="path240" /></g><g
       id="g242"
       transform="translate(890.9232,297.446)"><path
         d="M 0,0 H -11.991 L -11.987,11.992 0,11.991 Z"
         style="fill:#000000;fill-opacity:1;fill-rule:nonzero;stroke:none"
         id="path244" /></g><g
       id="g246"
       transform="translate(830.9704,81.6161)"><path
         d="M 0,0 V 35.972 H 11.991 V 11.991 H 35.972 V 0 Z"
         style="fill:#000000;fill-opacity:1;fill-rule:nonzero;stroke:none"
         id="path248" /></g><path
       d="m 878.933,93.607 h -11.991 v 11.991 h 11.991 z"
       style="fill:#000000;fill-opacity:1;fill-rule:nonzero;stroke:none"
       id="path250" /><g
       id="g252"
       transform="translate(1094.7626,309.4366)"><path
         d="m 0,0 h -203.839 l 0.001,11.995 L 0,11.991 Z"
         style="fill:#000000;fill-opacity:1;fill-rule:nonzero;stroke:none"
         id="path254" /></g><g
       id="g256"
       transform="translate(1106.7626,309.4366)"><path
         d="M 0,0 H -12 V -11.991 H -0.01 Z"
         style="fill:#000000;fill-opacity:1;fill-rule:nonzero;stroke:none"
         id="path258" /></g><g
       id="g260"
       transform="translate(1058.7909,165.55)"><path
         d="m 0,0 h -23.981 v 11.991 h 11.99 v 11.99 H 0 Z"
         style="fill:#000000;fill-opacity:1;fill-rule:nonzero;stroke:none"
         id="path262" /></g><g
       id="g264"
       transform="translate(1142.7247,189.5311)"><path
         d="m 0,0 h -11.991 l 0.003,-11.991 h -11.993 v -11.99 l 23.987,-10e-4 z"
         style="fill:#000000;fill-opacity:1;fill-rule:nonzero;stroke:none"
         id="path266" /></g><path
       d="m 1094.763,165.55 h 12 v 12.005 h -12 z"
       style="fill:#000000;fill-opacity:1;fill-rule:nonzero;stroke:none"
       id="path268" /><g
       id="g270"
       transform="translate(866.9421,297.446)"><path
         d="m 0,0 h 11.991 v -167.868 h 11.99 v -11.99 l 119.916,-0.016 -0.01,12.006 h 11.99 l 0.013,-12.006 119.893,0.016 0.015,-11.971 -23.981,0.013 -0.001,-23.994 h -35.971 l -0.031,11.979 23.997,-0.008 v 11.99 l -23.974,0.017 -0.023,-11.999 -11.96,0.012 -0.017,11.988 -11.988,-0.018 v -23.981 h -35.972 v 11.991 h 23.981 v 11.99 h -23.981 v -11.99 h -11.99 v 11.99 H 71.943 V -215.83 H 35.972 v 11.991 h 23.981 v 11.99 H 35.972 v -11.99 H 23.981 v 11.99 h -11.99 v 11.991 h -35.972 v 11.99 h 11.99 v 11.991 H 0 v 23.981 h -23.981 v 11.99 l -35.957,0.021 v 11.981 l 47.962,0.009 -0.015,-12.011 H 0 v 11.991 l -11.976,0.02 v 11.991 h -23.981 v 11.99 h -35.971 v 11.971 h 47.947 l 0.015,-11.971 H 0.018 Z"
         style="fill:#000000;fill-opacity:1;fill-rule:nonzero;stroke:none"
         id="path272" /></g><g
       id="g274"
       transform="translate(1046.8003,153.5594)"><path
         d="M 0,0 V -23.981 H 83.934 V 0 H 71.943 V -11.991 H 47.962 V 0 L 35.972,-0.006 V -11.991 H 11.991 l 0,11.991 z"
         style="fill:#000000;fill-opacity:1;fill-rule:nonzero;stroke:none"
         id="path276" /></g><g
       id="g278"
       transform="translate(1106.7531,297.446)"><path
         d="m 0,0 h 11.991 l -0.002,-47.961 11.992,-0.001 v -11.991 l -11.992,-0.003 0.002,-11.987 H 0 Z"
         style="fill:#000000;fill-opacity:1;fill-rule:nonzero;stroke:none"
         id="path280" /></g><g
       id="g282"
       transform="translate(1034.8098,141.5689)"><path
         d="m 0,0 -23.985,0.004 0.004,23.98 L 0,23.981 Z"
         style="fill:#ff9999;fill-opacity:1;fill-rule:nonzero;stroke:none"
         id="path284" /></g><g
       id="g286"
       transform="translate(1166.7058,165.55)"><path
         d="m 0,0 -23.975,-0.001 -0.006,-23.98 H 0 Z"
         style="fill:#ff9999;fill-opacity:1;fill-rule:nonzero;stroke:none"
         id="path288" /></g></g></svg>
